<svg xmlns="http://www.w3.org/2000/svg" viewBox="-30 -30 60 60">
  <rect fill="#222" x="-30" y="-30" width="100%" height="100%" />

  <g class="gear">
    <circle r="13" stroke="#DDD" stroke-width="16" fill="none"></circle>
    <g class="teeth" fill="#DDD">
      <path d="M -4.610475 20.487642 L -4.944856 28.575312 Q 0 29.424688 4.944856 28.575312 L 4.610475 20.487642"></path>
      <path d="M 11.226853 17.74705 L 16.709255 23.702337 Q 20.806396 20.806396 23.702337 16.709255 L 17.74705 11.226853"></path>
      <path d="M 20.487642 4.610475 L 28.575312 4.944856 Q 29.424688 1.8017424E-15 28.575312 -4.944856 L 20.487642 -4.610475"></path>
      <path d="M 17.74705 -11.226853 L 23.702337 -16.709255 Q 20.806396 -20.806396 16.709255 -23.702337 L 11.226853 -17.74705"></path>
      <path d="M 4.610475 -20.487642 L 4.944856 -28.575312 Q 3.603485E-15 -29.424688 -4.944856 -28.575312 L -4.610475 -20.487642"></path>
      <path d="M -11.226853 -17.74705 L -16.709255 -23.702337 Q -20.806396 -20.806396 -23.702337 -16.709255 L -17.74705 -11.226853"></path>
      <path d="M -20.487642 -4.610475 L -28.575312 -4.944856 Q -29.424688 -5.4052277E-15 -28.575312 4.944856 L -20.487642 4.610475"></path>
      <path d="M -17.74705 11.226853 L -23.702337 16.709255 Q -20.806396 20.806396 -16.709255 23.702337 L -11.226853 17.74705"></path>
    </g>
  </g>
  
  <g class="versions" font-size="8" fill="#111" stroke="#111" stroke-width="0.5" font-family="Roboto">
    <text x="-15" y="14.5" transform="rotate(10)">1.3.2.231</text>
    <text x="-6" y="16" transform="rotate(100)">1.4</text>
    <text x="-6" y="15" transform="rotate(195)">0.8.1</text>
    <text x="-6" y="16" transform="rotate(280)">2.1.5</text>
  </g>
</svg>
